RBDS022runT45_grf
version=1
nRows=15
nColumns=19
inDegrees=no
endheader
time	ground_force_r_vx	ground_force_r_vy	ground_force_r_vz	ground_force_r_px	ground_force_r_py	ground_force_r_pz	ground_force_r_mx	ground_force_r_my	ground_force_r_mz	ground_force_l_vx	ground_force_l_vy	ground_force_l_vz	ground_force_l_px	ground_force_l_py	ground_force_l_pz	ground_force_l_mx	ground_force_l_my	ground_force_l_mz
     14.99900000	      0.00000000	      0.00000000	      0.00000000	      0.00000000	      0.00000000	      0.00000000	      0.00000000	      0.00000000	      0.00000000	   -175.94236970	   1182.27705998	     48.75802044	      2.25806296	      0.00000000	      0.92902858	      0.00000000	     -1.35848062	     -0.00000000
     15.00000000	      0.00000000	      0.00000000	      0.00000000	      0.00000000	      0.00000000	      0.00000000	      0.00000000	      0.00000000	      0.00000000	   -178.96332572	   1203.76103465	     50.42199041	      2.25692023	      0.00000000	      0.92888207	      0.00000000	     -1.25321969	     -0.00000000
     15.00100000	      0.00000000	      0.00000000	      0.00000000	      0.00000000	      0.00000000	      0.00000000	      0.00000000	      0.00000000	      0.00000000	   -181.66929100	   1223.80795743	     52.06932740	      2.25547935	      0.00000000	      0.92875187	      0.00000000	     -1.15787373	     -0.00000000
     15.00200000	      0.00000000	      0.00000000	      0.00000000	      0.00000000	      0.00000000	      0.00000000	      0.00000000	      0.00000000	      0.00000000	   -184.37525628	   1243.85488020	     53.71666438	      2.25403847	      0.00000000	      0.92862167	      0.00000000	     -1.06252777	     -0.00000000
     15.00300000	      0.00000000	      0.00000000	      0.00000000	      0.00000000	      0.00000000	      0.00000000	      0.00000000	      0.00000000	      0.00000000	   -187.08122156	   1263.90180298	     55.36400136	      2.25259760	      0.00000000	      0.92849147	      0.00000000	     -0.96718180	     -0.00000000
     15.00400000	      0.00000000	      0.00000000	      0.00000000	      0.00000000	      0.00000000	      0.00000000	      0.00000000	      0.00000000	      0.00000000	   -189.51154941	   1283.02853540	     56.99155390	      2.25096615	      0.00000000	      0.92837082	      0.00000000	     -0.87658322	     -0.00000000
     15.00500000	      0.00000000	      0.00000000	      0.00000000	      0.00000000	      0.00000000	      0.00000000	      0.00000000	      0.00000000	      0.00000000	   -191.80405854	   1301.69517263	     58.60921420	      2.24923942	      0.00000000	      0.92825493	      0.00000000	     -0.78835834	     -0.00000000
     15.00600000	      0.00000000	      0.00000000	      0.00000000	      0.00000000	      0.00000000	      0.00000000	      0.00000000	      0.00000000	      0.00000000	   -194.09656767	   1320.36180986	     60.22687451	      2.24751269	      0.00000000	      0.92813905	      0.00000000	     -0.70013345	     -0.00000000
     15.00700000	      0.00000000	      0.00000000	      0.00000000	      0.00000000	      0.00000000	      0.00000000	      0.00000000	      0.00000000	      0.00000000	   -196.21801737	   1338.58662560	     61.82860641	      2.24569580	      0.00000000	      0.92802727	      0.00000000	     -0.61334246	     -0.00000000
     15.00800000	      0.00000000	      0.00000000	      0.00000000	      0.00000000	      0.00000000	      0.00000000	      0.00000000	      0.00000000	      0.00000000	   -197.99734820	   1355.92779833	     63.39848149	      2.24369862	      0.00000000	      0.92792370	      0.00000000	     -0.52941927	     -0.00000000
     15.00900000	      0.00000000	      0.00000000	      0.00000000	      0.00000000	      0.00000000	      0.00000000	      0.00000000	      0.00000000	      0.00000000	   -199.77667903	   1373.26897106	     64.96835657	      2.24170144	      0.00000000	      0.92782014	      0.00000000	     -0.44549607	     -0.00000000
     15.01000000	      0.00000000	      0.00000000	      0.00000000	      0.00000000	      0.00000000	      0.00000000	      0.00000000	      0.00000000	      0.00000000	   -201.55600986	   1390.61014379	     66.53823165	      2.23970426	      0.00000000	      0.92771658	      0.00000000	     -0.36157287	     -0.00000000
     15.01100000	      0.00000000	      0.00000000	      0.00000000	      0.00000000	      0.00000000	      0.00000000	      0.00000000	      0.00000000	      0.00000000	   -202.72512495	   1406.67088279	     68.03735896	      2.23745406	      0.00000000	      0.92762349	      0.00000000	     -0.27931435	     -0.00000000
     15.01200000	      0.00000000	      0.00000000	      0.00000000	      0.00000000	      0.00000000	      0.00000000	      0.00000000	      0.00000000	      0.00000000	   -203.89424004	   1422.73162178	     69.53648627	      2.23520385	      0.00000000	      0.92753040	      0.00000000	     -0.19705584	     -0.00000000
     15.01300000	      0.00000000	      0.00000000	      0.00000000	      0.00000000	      0.00000000	      0.00000000	      0.00000000	      0.00000000	      0.00000000	   -205.06335513	   1438.79236078	     71.03561358	      2.23295364	      0.00000000	      0.92743732	      0.00000000	     -0.11479732	     -0.00000000
